<?xml version="1.0" encoding="UTF-8"?>
<svg id="icon-amg" xmlns="http://www.w3.org/2000/svg" viewBox="0 0 77.94 7.53">
  <defs>
    <style>
      .cls-1 {
        fill: #fff;
      }
    </style>
  </defs>
  <path class="cls-1" d="M77.94,3.41c0-.24-.21-.45-.45-.45h-7.35c-.24,0-.45.21-.45.45v.64c0,.24.21.46.45.46h4.63c.3,0,.29.14.29.49v.08c0,.35.02.43-.29.43h-9.4c-.24,0-.45-.21-.45-.45v-2.71c0-.24.19-.45.45-.45h12.12c.24,0,.45-.21.45-.45V.45c0-.24-.21-.45-.45-.45h-14.93c-.24,0-.45.21-.45.45v6.64c0,.24.21.45.45.45h14.93c.24,0,.45-.21.45-.45v-3.73"/>
  <path class="cls-1" d="M53.92,5.25c-.21.13-.35.26-.61.26h-1.9c-.24,0-.4-.13-.61-.26l-3.65-2.31c-.21-.13-.38-.03-.38.21v3.94c0,.24-.21.45-.45.45h-1.9c-.24,0-.45-.21-.45-.45V.45c0-.24.21-.45.45-.45h2.04c.24,0,.4.11.61.24l4.98,3.22c.21.13.41.13.62,0L57.66.24c.21-.13.35-.24.61-.24h2.04c.24,0,.45.21.45.45v6.64c0,.24-.21.45-.45.45h-1.9c-.24,0-.45-.21-.45-.45v-3.92c0-.24-.18-.33-.38-.21l-3.65,2.3h0Z"/>
  <path class="cls-1" d="M32.45,1.91c-.13,0-.24.1-.32.21l-1.18,1.52c-.08.11-.03.21.1.21h8.49c.27,0,.29-.1.29-.37v-1.05c0-.37.02-.49-.29-.49h-7.08v-.02ZM27.51,7.53h-2.46c-.19,0-.27-.18-.18-.33L30.2.3c.13-.16.3-.3.49-.3h11.44c.3,0,.49.26.49.56v6.52c0,.24-.21.45-.45.45h-1.91c-.24,0-.45-.21-.45-.45v-.94c0-.27-.03-.37-.29-.37h-10.02c-.19,0-.32.13-.45.29l-.03.03-.77.99c-.19.24-.46.45-.7.45h-.06Z"/>
  <path class="cls-1" d="M22.48,7.53c.24,0,.51-.19.7-.45L28.31.45c.19-.24.1-.45-.14-.45h-1.02c-.19,0-.37.13-.49.3l-5.33,6.89c-.08.16,0,.33.18.33h.99Z"/>
  <path class="cls-1" d="M18.91,7.53c.24,0,.51-.19.7-.45L24.73.45c.19-.24.1-.45-.14-.45h-1.45c-.19,0-.37.13-.49.3l-5.33,6.89c-.08.16,0,.33.18.33h1.42Z"/>
  <path class="cls-1" d="M13.07,7.53c-.19,0-.27-.18-.18-.33L18.22.3c.13-.16.3-.3.49-.3h2.12c.24,0,.33.21.14.45l-5.14,6.64c-.19.24-.46.45-.7.45h-2.07Z"/>
  <path class="cls-1" d="M8.21,7.53c-.19,0-.27-.18-.18-.33L13.34.3c.13-.16.3-.3.49-.3h2.86c.24,0,.33.21.14.45l-5.12,6.64c-.19.24-.46.45-.7.45h-2.81Z"/>
  <path class="cls-1" d="M.22,7.53c-.19,0-.27-.18-.18-.33L5.35.3c.13-.16.32-.3.49-.3h6.24c.24,0,.33.21.14.45l-5.1,6.64c-.19.24-.46.45-.7.45H.22Z"/>
</svg>