<svg width="224" height="50" viewBox="0 0 224 50" fill="none" xmlns="http://www.w3.org/2000/svg">
<g clip-path="url(#clip0_449_6786)">
<mask id="mask0_449_6786" style="mask-type:luminance" maskUnits="userSpaceOnUse" x="0" y="0" width="50" height="50">
<path d="M50 0H0V50H50V0Z" fill="white"/>
</mask>
<g mask="url(#mask0_449_6786)">
<path d="M46.6505 12.5C44.4564 8.69954 41.3004 5.54349 37.5 3.3493C33.6995 1.15513 29.3883 0 25 0C20.6116 0 16.3004 1.15513 12.4999 3.3493C8.69947 5.54349 5.5435 8.69954 3.34933 12.5C1.15514 16.3004 0 20.6116 0 25C0 29.3883 1.15514 33.6996 3.34933 37.5C5.5435 41.3004 8.69947 44.4564 12.4999 46.6507C16.3004 48.8449 20.6116 50 25 50C29.3883 50 33.6995 48.8449 37.5 46.6507C41.3004 44.4564 44.4564 41.3004 46.6505 37.5C48.8449 33.6996 50 29.3884 50 25C50 20.6116 48.8447 16.3004 46.6505 12.5ZM2.49995 25C2.49995 21.0504 3.53958 17.1704 5.51439 13.75C7.48912 10.3296 10.3295 7.48928 13.75 5.51438C16.9668 3.65713 20.5903 2.62704 24.2957 2.51112L21.4251 22.9361L5.17187 35.6345C3.41961 32.3675 2.49995 28.7145 2.49995 25ZM36.25 44.4857C32.8295 46.4604 28.9495 47.4999 25 47.4999C21.0504 47.4999 17.1704 46.4604 13.75 44.4857C10.5331 42.6284 7.82941 40.0053 5.87622 36.8543L25 29.1279L44.1238 36.8543C42.1705 40.0053 39.4668 42.6284 36.25 44.4857ZM44.8282 35.6345L28.5747 22.9361L25.7042 2.51112C29.4097 2.62705 33.0332 3.65714 36.25 5.51439C39.6704 7.48928 42.5108 10.3296 44.4855 13.75C46.4604 17.1704 47.5 21.0505 47.5 25C47.5 28.7145 46.5803 32.3675 44.8282 35.6345Z" fill="white"/>
</g>
</g>
<g clip-path="url(#clip1_449_6786)">
<path d="M69.2 18.5272L68.7636 30.4545V30.7454C68.7636 31.7636 69.0545 32.0545 70.6545 32.2V32.6363C69.4909 32.6363 69.0545 32.6363 68.3273 32.6363C67.6 32.6363 67.1636 32.6363 66 32.6363V32.2C67.6 32.2 67.8909 31.9091 67.8909 30.7454L68.3273 19.4C68.3273 18.2363 67.8909 17.9454 66.4364 17.9454V17.2182C67.3091 17.2182 67.7455 17.2182 68.3273 17.2182C68.9091 17.2182 69.6364 17.2182 70.5091 17.2182L74.8727 29L79.2364 17.2182C80.2545 17.2182 80.6909 17.2182 81.5636 17.2182C82.4364 17.2182 82.5818 17.2182 83.4545 17.2182V17.8C82 17.8 81.5636 18.2363 81.5636 19.2545L81.8545 30.7454C81.8545 32.0545 82.1455 32.2 83.7455 32.2V32.6363C82.2909 32.6363 81.7091 32.6363 80.8364 32.6363C79.9636 32.6363 79.3818 32.6363 77.9273 32.6363V32.2C79.3818 32.2 79.8182 31.7636 79.8182 30.7454L79.5273 18.6727L75.6 28.8545L75.3091 29.5818L74.8727 30.4545L74.5818 31.3272L74.2909 32.0545H73.8545L73.5636 31.3272L73.1273 30.4545L72.6909 28.7091L69.2 18.5272ZM89.7091 32.2C87.5273 32.2 86.6545 30.6 86.6545 26.9636H93.6364C93.6364 23.4727 92.1818 21.5818 89.2727 21.5818C86.3636 21.5818 84.7636 23.9091 84.7636 27.4C84.7636 30.8909 86.5091 33.0727 89.4182 33.0727C92.3273 33.0727 93.2 31.6182 93.4909 29.2909H92.6182C92.3273 31.1818 91.3091 32.3454 89.7091 32.3454V32.2ZM86.6545 25.9454C86.9455 23.3272 87.8182 21.8727 89.2727 21.8727C90.7273 21.8727 91.6 23.1818 91.7455 25.9454H86.6545ZM94.9455 22.1636V21.7272C96.2545 21.7272 97.1273 21.4363 98 21.2909C98 22.1636 98 22.6 98.2909 23.1818V23.4727C98.7273 22.1636 99.7455 21.2909 100.909 21.2909C102.073 21.2909 102.945 22.0182 102.945 23.1818C102.945 24.3454 102.509 24.3454 101.927 24.3454C101.345 24.3454 100.909 23.9091 100.909 23.6182V23.0363C100.909 22.6 100.618 22.6 100.182 22.6C98.8727 22.6 98.1455 24.0545 98.1455 26.3818V31.1818C98.1455 32.2 98.4364 32.3454 99.7455 32.4909V32.9272C98.4364 32.9272 98 32.9272 97.2727 32.9272C96.5455 32.9272 95.9636 32.9272 94.6545 32.9272V32.4909C96.1091 32.4909 96.2545 32.2 96.2545 31.1818V23.4727C96.2545 22.4545 96.2545 22.3091 94.8 22.3091L94.9455 22.1636ZM111.818 21.1454V24.9272H111.382C110.945 22.8909 110.073 21.8727 108.764 21.8727C107.455 21.8727 106 23.7636 106 27.1091C106 30.4545 106.873 32.0545 108.618 32.0545C110.364 32.0545 110.945 31.0363 111.091 29H112.109C111.818 31.4727 110.509 32.7818 108.473 32.7818C106.436 32.7818 103.964 30.4545 103.964 27.1091C103.964 23.7636 105.855 21.2909 108.473 21.2909C111.091 21.2909 110.073 21.5818 110.945 22.3091L111.527 21.1454H111.964H111.818ZM118.655 32.2C116.473 32.2 115.6 30.6 115.6 26.9636H122.582C122.582 23.4727 121.127 21.5818 118.218 21.5818C115.309 21.5818 113.709 23.9091 113.709 27.4C113.709 30.8909 115.455 33.0727 118.364 33.0727C121.273 33.0727 122.145 31.6182 122.436 29.2909H121.564C121.273 31.1818 120.255 32.3454 118.655 32.3454V32.2ZM115.6 25.9454C115.891 23.3272 116.764 21.8727 118.218 21.8727C119.673 21.8727 120.545 23.1818 120.691 25.9454H115.6ZM133.345 30.3091V16.9272C132.182 17.2182 131.164 17.3636 129.855 17.5091V17.9454C131.309 17.9454 131.455 17.9454 131.455 19.4V23.4727C130.582 22.0182 130 21.7272 128.691 21.7272C126.218 21.7272 124.473 24.0545 124.473 27.4C124.473 30.7454 126.218 33.0727 128.836 33.0727C131.455 33.0727 131.164 32.4909 131.745 31.1818C131.745 32.0545 131.745 32.2 132.182 33.0727C133.2 32.7818 133.636 32.6363 134.8 32.6363H135.236V32.2C133.636 31.9091 133.491 31.7636 133.491 30.4545L133.345 30.3091ZM128.982 32.3454C127.382 32.3454 126.509 30.6 126.509 27.2545C126.509 23.9091 127.236 22.1636 128.982 22.1636C130.727 22.1636 131.6 23.9091 131.6 27.4C131.6 30.6 130.582 32.3454 128.982 32.3454ZM140.909 32.2C138.727 32.2 137.855 30.6 137.855 26.9636H144.836C144.836 23.4727 143.382 21.5818 140.473 21.5818C137.564 21.5818 135.964 23.9091 135.964 27.4C135.964 30.8909 137.709 33.0727 140.618 33.0727C143.527 33.0727 144.4 31.6182 144.691 29.2909H143.818C143.527 31.1818 142.509 32.3454 140.909 32.3454V32.2ZM137.855 25.9454C138.145 23.3272 139.018 21.8727 140.473 21.8727C141.927 21.8727 142.8 23.1818 142.945 25.9454H137.855ZM146.727 32.9272V29H147.164C147.6 31.1818 148.618 32.2 150.218 32.2C151.818 32.2 152.691 31.3272 152.691 30.0182C152.691 28.7091 152.255 28.7091 151.236 28.1272L150.364 27.6909L149.2 27.2545C147.6 26.5272 146.873 25.8 146.873 24.4909C146.873 23.1818 148.327 21.4363 150.364 21.4363C152.4 21.4363 151.818 21.7272 152.836 22.1636L153.273 21.1454H153.709V24.6363H153.273C152.982 22.7454 152.255 21.8727 150.8 21.8727C149.345 21.8727 148.618 22.7454 148.618 23.7636C148.618 24.7818 149.055 25.0727 151.091 25.9454L152.109 26.3818C153.855 27.1091 154.582 27.8363 154.582 29.2909C154.582 30.7454 153.127 32.6363 150.8 32.6363C148.473 32.6363 148.909 32.3454 148.036 31.6182L147.6 32.6363H147.164V32.9272H146.727ZM171.745 21C171.745 19.6909 171.309 18.6727 170.291 18.0909C169.564 17.5091 168.691 17.2182 167.091 17.2182H160.982V17.8C162.582 17.8 162.873 18.0909 162.873 19.2545V30.4545C162.873 31.7636 162.873 31.9091 160.982 31.9091V32.3454H166.8C168.545 32.3454 169.418 32.0545 170.436 31.6182C171.6 30.8909 172.327 29.4363 172.327 27.9818C172.327 26.5272 171.891 25.6545 170.873 24.9272C170.436 24.4909 169.855 24.3454 168.982 24.2C170.582 23.6182 171.455 22.4545 171.455 20.8545L171.745 21ZM164.909 17.9454H166.945C168.836 17.9454 169.709 18.9636 169.709 21.1454C169.709 23.3272 169.418 23.0363 168.982 23.4727C168.545 24.0545 167.818 24.2 166.509 24.2H164.909V17.9454ZM167.236 24.9272C168.545 24.9272 169.127 25.2182 169.709 25.6545C170.145 26.0909 170.582 27.1091 170.582 28.2727C170.582 30.6 169.418 31.9091 167.236 31.9091H166.364C165.055 31.9091 164.909 31.9091 164.909 30.6V24.7818H167.236V24.9272ZM179.309 32.2C177.127 32.2 176.255 30.6 176.255 26.9636H183.236C183.236 23.4727 181.782 21.5818 178.873 21.5818C175.964 21.5818 174.364 23.9091 174.364 27.4C174.364 30.8909 176.109 33.0727 179.018 33.0727C181.927 33.0727 182.8 31.6182 183.091 29.2909H182.218C181.927 31.1818 180.909 32.3454 179.309 32.3454V32.2ZM176.255 25.9454C176.545 23.3272 177.418 21.8727 178.873 21.8727C180.327 21.8727 181.2 23.1818 181.345 25.9454H176.255ZM184.4 22.3091V21.8727C185.855 21.8727 186.582 21.4363 187.455 21.1454C187.455 21.5818 187.455 22.3091 187.745 23.1818C188.618 21.8727 189.491 21.4363 190.945 21.4363C192.4 21.4363 193.564 22.1636 194 23.3272C194.291 23.7636 194.436 24.6363 194.436 25.5091V31.0363C194.436 32.0545 194.727 32.2 196.036 32.3454V32.7818C194.727 32.7818 194.436 32.7818 193.564 32.7818C192.691 32.7818 192.255 32.7818 191.091 32.7818V32.3454C192.4 32.3454 192.545 32.0545 192.545 31.0363V25.3636C192.545 23.3272 191.964 22.6 190.364 22.6C188.764 22.6 187.891 23.6182 187.891 25.5091V31.0363C187.891 31.9091 188.182 32.2 189.345 32.3454V32.7818C188.036 32.7818 187.745 32.7818 186.873 32.7818C186 32.7818 185.564 32.7818 184.4 32.7818V32.3454C185.855 32.3454 186 32.0545 186 31.0363V23.4727C186 22.4545 186 22.3091 184.691 22.3091H184.4ZM205.636 21.7272L199.236 32.0545H201.855C203.309 32.0545 204.182 31.4727 204.764 29.2909H205.2L204.618 32.6363H196.764L203.164 22.4545H200.255C198.8 22.4545 198.364 22.8909 197.636 24.7818H197.2L197.636 21.7272H205.636ZM160.836 25.8V27.1091H155.6V25.8H160.836Z" fill="white"/>
</g>
<defs>
<clipPath id="clip0_449_6786">
<rect width="50" height="50" fill="white"/>
</clipPath>
<clipPath id="clip1_449_6786">
<rect width="139.636" height="16.1455" fill="white" transform="translate(66 16.9272)"/>
</clipPath>
</defs>
</svg>
