<svg width="21" height="21" viewBox="0 0 21 21" fill="none" xmlns="http://www.w3.org/2000/svg">
<path d="M13.4749 8.64521L9.45864 4.62896C9.2947 4.46599 9.07293 4.37451 8.84176 4.37451C8.6106 4.37451 8.38883 4.46599 8.22489 4.62896C8.14288 4.7103 8.07778 4.80707 8.03336 4.9137C7.98894 5.02033 7.96606 5.13469 7.96606 5.25021C7.96606 5.36572 7.98894 5.48008 8.03336 5.58671C8.07778 5.69334 8.14288 5.79011 8.22489 5.87146L12.2499 9.87896C12.3319 9.9603 12.397 10.0571 12.4414 10.1637C12.4858 10.2703 12.5087 10.3847 12.5087 10.5002C12.5087 10.6157 12.4858 10.7301 12.4414 10.8367C12.397 10.9433 12.3319 11.0401 12.2499 11.1215L8.22489 15.129C8.06012 15.2926 7.9671 15.5149 7.96628 15.7471C7.96546 15.9793 8.05691 16.2023 8.22051 16.3671C8.38412 16.5318 8.60648 16.6249 8.83867 16.6257C9.07086 16.6265 9.29387 16.5351 9.45864 16.3715L13.4749 12.3552C13.9665 11.863 14.2426 11.1958 14.2426 10.5002C14.2426 9.80458 13.9665 9.13739 13.4749 8.64521Z" fill="white"/>
</svg>
