<svg width="24" height="24" viewBox="0 0 24 24" fill="none" xmlns="http://www.w3.org/2000/svg">
<path d="M18.7108 15.7901C18.6178 15.8839 18.5072 15.9583 18.3854 16.009C18.2635 16.0598 18.1328 16.0859 18.0008 16.0859C17.8688 16.0859 17.7381 16.0598 17.6162 16.009C17.4944 15.9583 17.3838 15.8839 17.2908 15.7901L12.7108 11.2101C12.6178 11.1164 12.5072 11.042 12.3854 10.9913C12.2635 10.9405 12.1328 10.9144 12.0008 10.9144C11.8688 10.9144 11.7381 10.9405 11.6162 10.9913C11.4944 11.042 11.3838 11.1164 11.2908 11.2101L6.71079 15.7901C6.61783 15.8839 6.50723 15.9583 6.38537 16.009C6.26351 16.0598 6.1328 16.0859 6.00079 16.0859C5.86878 16.0859 5.73808 16.0598 5.61622 16.009C5.49436 15.9583 5.38376 15.8839 5.29079 15.7901C5.10454 15.6028 5 15.3493 5 15.0851C5 14.821 5.10454 14.5675 5.29079 14.3801L9.88079 9.79015C10.4433 9.22835 11.2058 8.91279 12.0008 8.91279C12.7958 8.91279 13.5583 9.22835 14.1208 9.79015L18.7108 14.3801C18.897 14.5675 19.0016 14.821 19.0016 15.0851C19.0016 15.3493 18.897 15.6028 18.7108 15.7901V15.7901Z" fill="#D5D5D5"/>
</svg>
