<svg width="80" height="80" viewBox="0 0 80 80" fill="none" xmlns="http://www.w3.org/2000/svg">
<g clip-path="url(#clip0_1407_2438)">
<mask id="mask0_1407_2438" style="mask-type:luminance" maskUnits="userSpaceOnUse" x="0" y="0" width="80" height="80">
<path d="M80 0H0V80H80V0Z" fill="white"/>
</mask>
<g mask="url(#mask0_1407_2438)">
<path d="M74.6408 20C71.1303 13.9193 66.0806 8.86958 60 5.35888C53.9192 1.84821 47.0213 0 40 0C32.9785 0 26.0806 1.84821 19.9999 5.35888C13.9192 8.86958 8.8696 13.9193 5.35893 20C1.84822 26.0806 0 32.9785 0 40C0 47.0213 1.84822 53.9194 5.35893 60C8.8696 66.0806 13.9192 71.1303 19.9999 74.6411C26.0806 78.1518 32.9785 80 40 80C47.0213 80 53.9192 78.1518 60 74.6411C66.0806 71.1303 71.1303 66.0806 74.6408 60C78.1518 53.9194 80 47.0215 80 40C80 32.9785 78.1516 26.0806 74.6408 20ZM3.99992 40C3.99992 33.6806 5.66333 27.4726 8.82303 22C11.9826 16.5273 16.5272 11.9828 22 8.82301C27.1469 5.85141 32.9444 4.20326 38.8731 4.01779L34.2802 36.6977L8.27499 57.0152C5.47137 51.788 3.99992 45.9432 3.99992 40ZM58 71.1771C52.5272 74.3366 46.3192 75.9998 40 75.9998C33.6806 75.9998 27.4726 74.3366 22 71.1771C16.853 68.2055 12.5271 64.0084 9.40196 58.9669L40 46.6046L70.5981 58.9669C67.4728 64.0084 63.1469 68.2055 58 71.1771ZM71.7251 57.0152L45.7196 36.6977L41.1267 4.01779C47.0556 4.20328 52.8531 5.85143 58 8.82303C63.4726 11.9828 68.0173 16.5273 71.1768 22C74.3366 27.4726 76 33.6808 76 40C76 45.9432 74.5284 51.788 71.7251 57.0152Z" fill="white"/>
</g>
</g>
<defs>
<clipPath id="clip0_1407_2438">
<rect width="80" height="80" fill="white"/>
</clipPath>
</defs>
</svg>
