<?xml version="1.0" encoding="UTF-8"?>
<svg id="_레이어_1" data-name="레이어 1" xmlns="http://www.w3.org/2000/svg" viewBox="0 0 210 22.97">
  <defs>
    <style>
      .cls-1 {
        fill: #fff;
      }
    </style>
  </defs>
  <g id="maybach">
    <path id="Shape" class="cls-1" d="M107.1,3.53h-8.82v5.96h8.82c2.09,0,3.78-1.33,3.78-2.98s-1.69-2.98-3.78-2.98ZM47.88,4.62l-5.6,10.18h11.21l-5.6-10.18ZM136.08,4.62l-5.6,10.18h11.21l-5.6-10.18ZM109.2,12.59h-10.92v6.85h10.92c2.32,0,4.2-1.53,4.2-3.42s-1.88-3.42-4.2-3.42ZM4.63.44l9.65,9.69L23.93.44h4.63v22.09h-4.93V5.95l-9.35,9.38L4.93,5.95v16.58H0V.44h4.63ZM66.36.44l8.4,9.62L83.16.44h5.37l-11.2,12.83v9.26h-5.15v-9.26L60.99.44h5.37ZM189,.44v9.06h15.96V.44h5.04v22.09h-5.04v-9.94h-15.96v9.94h-5.04V.44h5.04ZM50.74.44l12.41,22.09h-5.41l-2.55-4.64h-14.61l-2.56,4.64h-5.41L45.02.44h5.72ZM107.94.44c4.41,0,7.98,2.87,7.98,6.41,0,1.17-.39,2.27-1.08,3.22,2.18,1.24,3.6,3.29,3.6,5.62,0,3.7-3.61,6.72-8.11,6.84h-.29s-16.8,0-16.8,0V.44h14.7ZM138.94.44l12.41,22.09h-5.41l-2.55-4.64h-14.61l-2.55,4.64h-5.41L133.22.44h5.73ZM168.42,0c3.71,0,7.16.65,10.08,1.77v3.77c-2.58-1.51-6.15-2.45-10.08-2.45-5.92,0-10.71,3.76-10.71,8.39s4.79,8.39,10.71,8.39c3.93,0,7.5-.93,10.08-2.45v3.77c-2.92,1.12-6.37,1.77-10.08,1.77-8.82,0-15.96-5.14-15.96-11.48s7.14-11.48,15.96-11.48Z"/>
  </g>
</svg>