<?xml version="1.0" encoding="UTF-8"?>
<svg id="_레이어_2" data-name="레이어 2" xmlns="http://www.w3.org/2000/svg" xmlns:xlink="http://www.w3.org/1999/xlink" viewBox="0 0 237.99 233.07">
  <defs>
    <style>
      .cls-1 {
        fill: url(#Black_White_2-7);
      }

      .cls-2 {
        fill: url(#Black_White_2);
      }

      .cls-3 {
        fill: url(#Black_White_2-2);
      }

      .cls-4 {
        fill: url(#Black_White_2-8);
      }

      .cls-5 {
        fill: url(#Black_White_2-5);
      }

      .cls-6 {
        fill: url(#Black_White_2-4);
        stroke: #1c1c1b;
        stroke-width: .69px;
      }

      .cls-7 {
        fill: url(#Black_White_2-6);
      }

      .cls-8 {
        fill: url(#Black_White_2-3);
      }
    </style>
    <linearGradient id="Black_White_2" data-name="Black, White 2" x1="85.34" y1="114.85" x2="169.16" y2="225.47" gradientTransform="translate(-61.84 -125.29) scale(1.42)" gradientUnits="userSpaceOnUse">
      <stop offset="0" stop-color="#fff"/>
      <stop offset="1" stop-color="#000"/>
    </linearGradient>
    <linearGradient id="Black_White_2-2" data-name="Black, White 2" x1="168.46" y1="226.34" x2="89.84" y2="119.21" xlink:href="#Black_White_2"/>
    <linearGradient id="Black_White_2-3" data-name="Black, White 2" x1="131.74" y1="163.41" x2="104.3" y2="78.52" gradientTransform="translate(-60.3 -123.38) scale(1.41)" xlink:href="#Black_White_2"/>
    <linearGradient id="Black_White_2-4" data-name="Black, White 2" x1="143.67" y1="121.62" x2="111.95" y2="143.06" gradientTransform="translate(-60.3 -123.38) scale(1.41)" xlink:href="#Black_White_2"/>
    <linearGradient id="Black_White_2-5" data-name="Black, White 2" x1="94.32" y1="149.36" x2="91.74" y2="195.76" gradientTransform="translate(-60.3 -123.38) scale(1.41)" xlink:href="#Black_White_2"/>
    <linearGradient id="Black_White_2-6" data-name="Black, White 2" x1="95.04" y1="191.96" x2="79.83" y2="177.66" gradientTransform="translate(-60.3 -123.38) scale(1.41)" xlink:href="#Black_White_2"/>
    <linearGradient id="Black_White_2-7" data-name="Black, White 2" x1="-1.2" y1="149.36" x2="-3.78" y2="195.76" gradientTransform="translate(162.51 -123.38) rotate(-180) scale(1.41 -1.41)" xlink:href="#Black_White_2"/>
    <linearGradient id="Black_White_2-8" data-name="Black, White 2" x1="-.5" y1="191.96" x2="-15.7" y2="177.66" gradientTransform="translate(162.51 -123.38) rotate(-180) scale(1.41 -1.41)" xlink:href="#Black_White_2"/>
  </defs>
  <g id="Layer_1" data-name="Layer 1">
    <g>
      <path class="cls-2" d="M118.98,0C53.27,0,0,52.16,0,116.54s53.27,116.53,118.98,116.53,119.01-52.17,119.01-116.53S184.72,0,118.98,0ZM118.98,228.22c-62.97,0-114.04-50.01-114.04-111.68S56.01,4.85,118.98,4.85s114.06,50.01,114.06,111.69-51.06,111.68-114.06,111.68Z"/>
      <path class="cls-3" d="M118.98,6.08C56.69,6.08,6.19,55.53,6.19,116.54s50.5,110.46,112.79,110.46,112.79-49.46,112.79-110.46S181.28,6.08,118.98,6.08ZM118.98,220.93c-58.85,0-106.58-46.74-106.58-104.39S60.13,12.14,118.98,12.14s106.6,46.74,106.6,104.4-47.73,104.39-106.6,104.39Z"/>
      <polygon class="cls-8" points="118.98 8.53 99.88 107.18 118.37 115.93 118.98 8.53"/>
      <polygon class="cls-6" points="117.73 8.53 136.88 107.18 118.37 115.93 117.73 8.53"/>
      <polygon class="cls-5" points="19.93 166.89 117.89 137.2 117.13 117.1 19.93 166.89"/>
      <polygon class="cls-7" points="20.53 167.96 100.57 105.19 117.13 117.1 20.53 167.96"/>
      <polygon class="cls-1" points="216.8 166.89 118.84 137.2 119.62 117.1 216.8 166.89"/>
      <polygon class="cls-4" points="216.23 167.96 136.17 105.19 119.62 117.1 216.23 167.96"/>
    </g>
  </g>
</svg>